<?xml version="1.0" encoding="utf-8"?>
<!-- Generator: Adobe Illustrator 18.0.0, SVG Export Plug-In . SVG Version: 6.00 Build 0)  -->
<!DOCTYPE svg PUBLIC "-//W3C//DTD SVG 1.1//EN" "http://www.w3.org/Graphics/SVG/1.1/DTD/svg11.dtd">
<svg version="1.1" id="Layer_1" xmlns="http://www.w3.org/2000/svg" xmlns:xlink="http://www.w3.org/1999/xlink" x="0px" y="0px"
	 viewBox="0 0 542.2 459.7" enable-background="new 0 0 542.2 459.7" xml:space="preserve">
<path fill="#008FD5" d="M440,101.7c36.5,60.2,28.9,151.9-15.1,206.1c-48.7,64.3-129,92.2-208.3,70.3
	C144.5,359.2,85.7,290.4,79.1,216c-9-78.9,27.7-150.8,94.4-190.2c51.4-31.6,130.7-35.2,184.2-5.2C390.2,36.4,422.9,68.8,440,101.7z
	 M274.8,8.9c0.7,7.2,0.7,17.3,0,25.5c0.2-1.3,1.4-1.3,2.2-1.8c2.5,0.9,2.5,4,1.8,6.1h-0.5c12.9-0.9,25.3,2.3,37.2,5.9
	c12.4,1.6,23.2,16.5,35.4,8.6c3.4,3.8,9.3,0.2,11.1,6.1c4.7,0.9,7.2,5.6,10.4,8.6c-0.4,4.3,3.6,6.3,5,9.5v-0.5
	c4.1-7.4,10.6-13.8,17.8-17.6c-25.7-24.4-57.2-40.3-91.5-46.5C294.4,10.9,284,11.5,274.8,8.9z M144.5,59.8l21.2,20.3
	c26.6-25.9,60.7-40.6,98.3-41.9c-1.4-9-0.9-19.2-0.4-28.4C218,12.4,178.3,29.6,144.5,59.8z M409.8,15.8l13.8,13.8
	c14,21.6,33.6,43,53,56.6c-4.1-8.6-5-18.7-9.3-27.3C458.7,34.8,431.9,23.1,409.8,15.8z M128.1,18.5c-17.1,6.8-35.6,12.4-48.3,28.4
	c-9.9,12.9-12.9,28.4-18,43.1l15.1-12.9C99.9,61.1,105.9,35,128.1,18.5z M296.9,24.4L284,30.2c-1.4,0.7-5.9-1.6-5.2,2.2
	c2.5,1.6,5,3.4,8.1,3.8c8.1-3.6,17.8,2.3,24.6-5.2C309.5,25.5,302.3,25.3,296.9,24.4z M462.1,40.9c19.1,12.6,17.8,35.8,24.6,54.6
	c1.8,7.9,6.6,15.1,7.2,23c-10.2-29.7-44.8-32.9-57.3-60.9l3.9,16.4c9.7,31.8,47.6,39.5,62,68.3c-4.5-20.8,3.4-42.6-2.9-63.1
	C494.4,61.6,479.9,46.1,462.1,40.9z M44.9,69.3c-14.6,21.4-2.7,51-6.8,76.4c5.2-10.4,15.3-20.3,24.1-27.7
	c20.3-13.1,38.5-34,39.2-57.3C90.6,88.4,55,92,46.2,121.5h-0.9C58.4,97,51,62.5,76,44.4C62.9,48.1,51.8,57.8,44.9,69.3z M274.4,48.1
	c1.4,9,0.9,19.8,0.4,28.6c22.8,0.4,44.4,7.4,62.2,20.7c-1.6-0.9-3.8-4.5-3.4-6.8h0.7c0.4-3.2-4.5-4.7-2.9-7.9
	c4.3,0.4,7.5,6.3,9.9,9.5c12.4-0.2,5.2,14.6,14.6,19c2.2,1.1-0.7,5.6,2.7,5.2c2.9,2.3,6.5,4.9,5.9,8.6c1.1,6.5,6.3-2,9.2,2.2
	c2.5,2-1.8,3.2-1.3,5.6c1.6,0.7,3.1-1.6,4.3,0.4c0.5,2.2-1.1,3.1-2.2,4.3c-1.1,3.8,3.4,1.6,4.7,3.4c2,4.3,3.6,10.8,0.4,15.6
	c4.5,4.9-0.7,9.9-1.6,14.6c-3.2,3.1-3.8,10.2-9.9,8.6c-1.4,2.5,0.9,5.4-0.5,7.4l10.8,0.5c-6.1-8.6,1.8-16.9,4.3-24.6
	c1.3-0.5,2.9-3.2,4-0.5c-0.5,3.6-0.9,7.5-1.3,10.4c2.7,4.1,1.6,9.9,2.5,14.7l27.7-0.5c-2-18.3-5.8-35.9-13.5-51.8
	c-2,0.7-4.3,2.2-6.5,0.9c-3.1-4.1-5.6-9.2-9.9-12.6c-3.6,0-6.1-2.9-9-4.7c-6.3,0.2-4-9-10.1-7.7c-3.2-1.6-5.6-3.2-6.5-7
	c-0.2-4.3-0.5-9.7-4.7-12.9c-2.3-1.3-4.5,0.4-6.1,1.8c-3.4,2.2-4.8-1.6-4.7-4.3c-3.8-2.9,0.2-6.1-1.8-9.5c-5.4-4.3-2.9-12.4-10.2-16
	c-11.9-5.7-24.4-9.3-37.6-12C288.3,50.1,280.9,49.9,274.4,48.1z M356.8,48.1c-1.4,0.4-0.9,2.7-0.4,3.6c4.7,0.4,4.7,8.3,10.2,5
	l-1.3-5.6C363.9,47.6,359.1,49.4,356.8,48.1z M171.8,87.5c7.2,5,14.2,12.9,20.1,19.4c19-18.5,44.6-29.8,72.1-30.2
	c-0.5-9-0.5-18.7,0-27.7C229.2,51.7,197.9,64.3,171.8,87.5z M402.1,65.9l-18.9,20.3l-3.1,0.4c2.5,0,1.8,2.9,3.4,4
	c7.9,5.6,11.5,13.5,18.2,19.4c2.5,6.1,9,10.1,9,17.6c9.3,18.2,13.7,39.5,14.7,60.4c9.3-1.1,20-1.4,28.9-1.3l-0.9-0.9
	C451.7,139.1,432.6,99.2,402.1,65.9z M138.9,69l-0.9-2.7C107.3,99.7,90,141.9,87.7,188l29.3,0.4c-1.1-9.3,1.4-18.3,2.5-27.5
	c6.3-27.1,18-52.8,38.8-73L138.9,69z M503.4,75.8c13.3,19.4,5.7,46.7,4.9,69.4c0.5,11,2.3,21.9,1.6,32.9c-1.6-4.3-2-9-3.1-13.5
	c-5.4-24.6-34.3-36.7-46-57.3c1.8,7,3.1,14,5.6,20.7c10.1,29.1,40.3,48.7,44.4,80.3c2.7-30.2,23.9-54.3,16-87.2
	C522.6,104.6,515.8,88.4,503.4,75.8z M34.5,79.8c-10.4,12.4-17.4,27.3-21,43.1c-7,33.1,12.9,58.6,17.3,88.8
	c5.8-37.9,45.7-61.8,47.8-101.4c-11.7,21.4-40.1,33.8-45.3,59.1c0,4.1-1.3,8.1-2.2,12l-0.9-0.9l1.4-16.4
	C36.5,134.9,19.4,104.7,34.5,79.8z M264.6,86.2l-0.9,0.7c-24.8,1.4-45.5,12.4-64.7,27.3c7.4,4.8,13.3,12.4,20.3,18.9
	c12-11.5,28-18.3,44.8-18.9C263.5,106,263.1,95,264.6,86.2z M274.8,86.6c1.4,8.4,1.1,18.3,0.5,27.1c16.7,1.3,34.5,8.1,46.5,19
	c6.3-6.5,13.3-15.1,20.3-19C322.4,98.1,300.3,88.4,274.8,86.6z M164.5,93.4v1.8c-22.8,26.1-35.6,57.5-37.9,92.7
	c9.3,0.2,19.6-0.4,28.4,0.4l-0.9-1.3c1.8-27.9,11.7-53.2,30.7-73.3C177.2,107.6,170.2,100.6,164.5,93.4z M348.1,120.2
	c-8.3,9.7-19.1,20-27.1,29.3c0.5,1.3,2,2.7,2.2,2.2c2.2-2.7,0.5-9.5,6.5-8.1c5.9,2,11.1,1.4,17.6,2.2c3.6,2,4.1,6.3,7.4,8.1
	c1.4,1.6-0.5,3.1-1.3,4.3c0.7,0.7,1.4,1.4,1.8,2.2c1.8-1.6,4.3-3.8,7.7-2.9c3.4,0.2,4.3,5,7.4,5.6c1.4,1.8-0.9,3.6-2.2,4.3
	c0.7,3.4-3.2,4.5-1.8,7.7c1.8,0.4,3.6-0.5,4.3-1.8c6.8-5,1.4-11.5,0.4-17.6c-2.7-5.6-8.4-6.6-12.9-10.8c0.2-1.8,1.3-3.8,2.7-4.7
	C360.5,132.2,352.4,126.8,348.1,120.2z M191.9,121.1c-6.1,7.5-12,15.8-16.4,24.6c-7,12.9-9,27.9-11.7,42.6l11.7-0.4
	c-2-2.3-1.6-5.6-1.6-8.6c2.7-5.7,3.8-16,12.4-15.5c4.1-0.9-0.2-4.1,3.1-5.8c6.1-0.9,7.7-6.6,12.9-9.3c4.9-0.5,5.9-7.4,10.8-7.9
	C204.9,135.1,199.3,127.9,191.9,121.1z M275.3,124.5l0.7,19.4l7.4,2.7c2.2-3.8,6.1-4.7,8.6-7.9c2.3-1.1,2.3,1.8,3.4,2.7
	c1.4,8.8-8.3,12.8-13.7,16.4h2.2c5.6-5.8,8.8,7.2,14.6,1.3c1.1-7.4,11.5-6.5,13.8-13.8c-1.8,1.8-2.7-0.2-4.3-0.7
	c0.5-2.5,4-4.1,5.6-5.8C301.9,131.5,289.2,126.7,275.3,124.5z M263.7,125.1c-15.1,2.2-29.3,7.7-40.1,19.4c3.6,0.7,7.2,2.2,9.9,4.7
	c0.9,1.8-1.6,2-1.8,3.1c2.3,3.4,2.5-0.7,4.9-1.3c2.2,2.2,4.1,3.8,7.2,2.2c1.6,2.7,4.1,0.2,6.1,0.4c0.7-2.2,3.8-4,2.5-6.5
	c1.1-2,1.6-5.2,4.3-5.2c-1.6,8.4,6.3,0,8.6,4C262.9,139.6,264.7,131.2,263.7,125.1z M533.6,145.7c5,29.1-12.6,51-19.8,76.4
	c-4,9.7-2.3,22.1-8.3,30.6c-0.4-4.9,2.3-9.5,2.7-14.7c4.5-32.5-23.7-51.8-30.2-79.3c-0.4,7.4,0.2,14.4,1.3,21
	c1.6,34.3,24.1,62.2,17.6,98c6.5-8.4,11.3-17.1,19.1-25.3C541.9,225.3,548.5,180.2,533.6,145.7z M7,149.5
	c-9.3,21.6-8.8,50.1-1.8,72.6c6.1,23.2,28.2,39.4,39.7,59.5c-2-8.4-1.6-19.1-0.4-27.7c7.5-30,19.4-59,17.6-92.2
	c-4.5,23.9-25.9,40.8-28.4,65.4c-1.6,10.1,0.9,20,2.2,28.9c-2.3-4.5-4.5-9.7-4.9-15.5C27.5,208.3,1.4,184.5,7,149.5z M263.1,160.8
	l0.5,0.4c0.5,2.7,2.5,6.8,0,8.6c-3.2,4.3-11,3.4-12,9.2c-8.4,2.5-5.2,12.9-7.9,19.4c-5.4,1.3-3.4-5.2-5.9-7.4l-1.3,1.6
	c-8.3-6.3-6.7,7.2-11.7,8.3c5.7,1.3,10.6-2,16.4-2.2c0.4,0.7,1.8,1.1,1.3,2.2h0.9c1.3-1.3,1.4-2.9,1.3-4.7c0.5-1.8,2.7-2.9,4.3-1.8
	c-0.5,1.8,0.7,3.2,2.2,4l-3.1,4.3c-1.6,1.8,0.4,6.7-3.8,6.5c-0.9,0.2-1.6-0.5-1.3-1.4h-0.9l2.2,4c2.5-0.2,2-4.7,5.2-5.2
	c2.9-0.7,3.2-4.1,2.9-6.8c3.8-3.2,8.4-1.3,12.6-1.8c1.1,1.1,3.6,1.4,3.1,3.4c1.6,3.2-1.1,6.8-3.1,9.5c0.9,1.8-1.3,3.2-1.3,5.2
	c-3.4,3.6-7.2,2-11.7,3.1c5.7,4,11.9,6.5,19.4,5.9c7.2,0.5,3.8-8.6,9-11.5c3.1-0.4,5.7,0.4,9.2-0.5c1.4-2.7,1.6-5.9,2.2-9
	c-3.1-1.4-2-4.5-2.2-7c-1.8-2.2-1.6-6.1-5.2-6.5c-0.7-2,1.4-2.9,1.3-4.7c5.4-2-2.9-5.2,0.5-8.3c-6.1-1.1-7.5-10.8-15.1-7.7
	c-1.8-2.5-6.5-3.6-6.5-7.4c0.5-2.7,6.6-1.6,5.9-1.3c-0.4-0.5-1.1-0.9-0.9-1.6C267.3,159.4,264.6,159.6,263.1,160.8z M186.4,184
	c-6.6,2.2,0,8.4-0.4,12.6c-0.7,3.4-4.1,0.7-6.1,2.2c0.9,5.6-3.8,6.7-7.7,7.7c-1.3,3.8,2.9,5.6,0.9,9.2c4.8,4.9,8.6,10.8,7.7,17.6
	c3.4,4.9,2.5,12.2,3.4,18.5c2.9,2.9,4.5,7.2,4.3,11.7c0.2,2.3-2.3,3.1-3.8,4c-1.8,2.2,1.3,1.1,1.3,2.9l24.1-25
	c-8.4-9.7-15.1-22.6-17.6-36.1l-3.1-1.8c-0.5,3.4-0.4,8.3-3.4,9.5c-1.6-1.4-4.8-2.2-4.8-5.2c0.9-2,2.5-0.7,4-0.9
	c-0.2-1.6,0.2-3.2,0.4-4.7c0.5-2-2.9-3.4-0.4-5.2c2.2-0.2,3.1,2.3,4.7,3.4l4.3-2.2c-1.3-4.1,1.1-10.6-0.4-15.1
	C193.2,183.5,189.3,184.2,186.4,184z M363.2,187.6h2.2H363.2z M360.2,196.6l4.8,5.6c-0.2,6.3,8.4,8.3,9,14.7
	c1.8-5.9,1.6-12.6,3.4-18.5C371.9,197.8,364.8,199.6,360.2,196.6z M424.5,196.9l0.9,1.8c-1.6,37.9-17.3,72.6-41.5,98.3
	c6.8,6.1,14.6,14,20.8,20.7c23.9-27.5,40.3-58.4,46-93.5c2-9,1.4-18.7,4-27.3c-8.8,2.5-19.2,0.9-28.9,1.4L424.5,196.9z M387.5,197.5
	c1.1,3.6-1.1,7-0.9,10.8c-3.8,6.3,4.9,7.9,2.5,13.8c-1.6,1.3-3.2,1.1-5.2,0.4c-4.5,17.6-13.3,33.8-25.9,47.8h-1.3
	c3.2,2,5.6,6.5,9.2,7.4v-2.5c0.7-0.5,1.1-1.8,2.2-1.3c7,2.2,7.5,11.9,8.1,16.4c18.3-19.2,29.7-42.1,35.4-66.9
	c2-8.3,0.9-18.3,4.3-25.5C406.5,198.4,396.3,198.9,387.5,197.5z M163.6,197.8c2,6.5,4.1,13.5,2.5,20.7c0-3.2,7-6.5,1.4-9.3
	c2.2-3.2,0.5-10.1,4.7-10.4C168.9,199.5,166.4,199.5,163.6,197.8z M88.1,198.7c2,45.8,18.9,85.9,48.7,119.9c6.6-7,14-14.9,21.2-20.7
	c-3.6-2.3-5.9-6.5-9.5-9.5c-4.5-0.9-7.5-5.2-8.6-9c0.2,0.5-0.5,0.9-0.9,1.3c-4.1,2-5.4-3.1-8.1-4.7c-2.5-1.3-0.5-7-4.9-4.9
	c-2.5-4.1-7.2-3.8-9-8.6l-1.8,3.1c-3.2-0.2-5.6-4.1-7.4-6.1c-6.6,2-4-7.2-7.7-10.2c-1.4-5.8,0.4-11.1,3.4-15.6
	c2-1.8,5.8-0.4,6.5,0.9c3.4,1.3,1.3-2.7,3.1-3.4c4.8-4.1,7.2,1.6,9.9,4.7c-4-11.5-6.5-25-5.9-37.4
	C107.8,199.6,97.4,199.3,88.1,198.7z M126,198.4l0.9,1.3c0.9,12.9,4.5,25.5,5.6,37.9c1.6-1.1,0.5-4,2.7-4c0.7-6.1,1.6-13.1,5.6-18.5
	c5.7-0.2,5.9-7.9,12-7.4c1.4,1.1,3.4,2.5,4,4.3c-3.1-3.6-3.2-9.3-1.8-13.7C145.9,199.6,135.2,199.6,126,198.4z M204.2,209.9l1.6,2.7
	c2.2,9,7.5,16.5,12,24.6l8.3-8.6c-0.2-1.1,0.4-2.3-0.4-3.1c-1.6-2.2-0.5-6.1-2.7-7.4c-0.7,2,1.6,3.1,0.5,4.7c-2.7-1.1-5.6-2.3-7-5.6
	c0.5-4.1-2.5-1.1-4.7-3.1C211.7,209.7,206.1,212.6,204.2,209.9z M234.4,217.3c-0.5,2.5-2.5,4.5-4,6.5c2.5-1.1,4-4.9,6.8-4.7
	L234.4,217.3z M482.4,220.7c-17.1,36.8-4.7,85.7-25.5,120.8l3.4-2.9c40.4-22.1,89.1-59.3,81.1-113.6c-0.7,7.4-3.1,14-6.5,20.3
	c-15.8,24.6-42.8,44.7-56.1,70.3c-0.4,0.9-1.6,1.4-2.2,0.5l2.7-3.4C498.4,285.2,481.3,251.4,482.4,220.7z M311.1,223.7
	c-4,5.6,3.8,5.2,4.3,9.9c0.9,0,2,0.4,2.5-0.4c-0.5-2-0.4-4.1-2.2-5.6C312.7,227.7,312.7,223.7,311.1,223.7z M59.1,224.3
	c2.2,11.9-1.6,22.3-3.4,33.1c-6.1,20.7-3.1,44.9,9,61.8c-4-2-6.5-6.6-9-10.8C40.8,279.8,3.2,263.6,0,229.3
	c-0.2,12.4-0.2,25.5,3.6,36.7C14,304.4,56.4,324.2,85,343.6C64.7,308.6,75.5,260.9,59.1,224.3z M358.9,225.9
	c-5.2-3.9-4.1,3.6-8.6,3.1c-1.6-0.4-2-2.3-2.2-4c-0.4,4.1-3.6,7.2-5.9,10.4c-8.3-2.3-6.1,9.3-14.4,6.8c1.1,3.2,4.7-0.5,6.5,0.5
	c1.4-0.7,1.1-2.2,1.8-3.1c0.9-3.4,5-4.7,8.3-3.4c1.8,2.9,2.3,6.5,2.2,9.9c-2,1.4-2,3.8-1.8,6.1c-2.5,4.1-1.4,12.9-9,12
	c-7.9-2.9-16.5-5-25.2-5.2v1.8c5.8,2.2,12.2,2.2,16.9,6.5c5-0.5,11.3,0.7,15.1-2.2c0.5-3.6,2-6.8,4.3-9.5c3.2,0.4,2.5,4.7,4,6.8
	c9.5-12,17.8-23.5,21-38.3C367.2,223.9,363.8,226.6,358.9,225.9z M243.4,225.5l-17.3,19.4c9.9,7.5,21.4,13.5,34.2,15.5
	c-0.2-3.4-0.2-6.8,1.6-9.5c1.8-1.1,4.5,0.5,6.1-1.3c-0.2-1.6-1.3-1.6-2.2-3.1c-1.1-2.5,0-4.8,0.4-6.5c0.7-1.3-1.4-4.1,0.9-5
	c-5.6,2.7-10.6-1.1-15.5-2.7C248.9,230.2,244.1,229.7,243.4,225.5z M299.1,244.9c2.2-2.9,6.8-2.3,7.7-5.6
	C302.8,238.6,298.5,241.5,299.1,244.9z M309.3,249.2c-2,1.1-3.6,1.1-4.7,3.4c-2.3,3.1-5.2-0.2-7.4-1.3c0.7,0.9,2.3,3.1,0.4,4.3
	c-2.3,2.5-4.5-1.1-6.8-1.8c-1.3,7.9-4.1-2.2-8.3-0.4c-1.8-4.5-4.9,0.9-7.7,0.4c-2.2,1.8-2.3,7-6.5,6.5c-0.9,2.5-4.3,1.6-4.7,3.4
	c2,2.3,4.7,1.3,6.8,0.9c3.4-3.1,7.7-1.1,11.7-1.6c-0.4,6.5,7.2,1.6,9.5,5.6c2.7-0.2,2.7-2.9,3.8-4.9c5.6-0.9,11.3-4.3,14.4-8.6
	C310.6,253.6,311.6,250.1,309.3,249.2z M217.5,252.3c-5.7,7-12.6,13.7-19.4,19.4h1.3c15.8,13.7,35.8,23.2,54.5,26.2
	c-6.8-0.9-9.5-7.6-12.6-12.6c-1.8-4.1,4.5-5,3.4-9.3c2.3-3.8,5.9-5.9,10.4-6.5c-2.2,0.4-4.3,0.7-6.5,1.3
	C237.2,267,225.7,262,217.5,252.3z M465.1,275.1L450,294.9c-20.3,28-18,66.3-46.2,90.2c14.6-4.7,30.6-6.7,45.6-9.9
	c34-8.6,69.7-42.1,74.6-76.9c-6.1,14.6-18.9,25.3-31.8,33.8c-22.3,10.4-44.9,22.3-63.8,38.8h-2.2l1.3-1.8
	C460.1,347.6,451.3,305.9,465.1,275.1z M349.9,277.3v0.4c-13.5,9.5,6.5,9.9,6.8,18.2c-2,4-9.2,7.9-4.7,12.6c1.4,1.6-0.7,2.9-1.3,4.3
	l18.5-15.6c-2.3,1.6-5.2,0.5-6.5-1.6C363.1,287.3,353.3,283.8,349.9,277.3z M76.4,278.2l5.2,13.3c5,29.8,7.4,62.7,34.5,81.6
	l-0.4,0.4c-8.8-3.8-15.5-11.1-23.4-16c-25.5-16.5-60.7-23.9-75.1-55.5c4,23.2,19.8,43.9,38.8,58.2c22.8,20.1,54.6,18.5,82.5,26.6
	c-10.2-7.9-16-16.9-20.7-28C107.7,330.5,98.7,301,76.4,278.2z M197.2,284.1l2.2,2.7L197.2,284.1z M200.2,287.5c0,3.1,4.1,3.2,2.5,7
	c-6.1,3.8-13.5,1.1-19.4,5.6c-5.4,2.9-9.9-3.4-12.9-3.1c26.2,22.6,57,37.7,92.4,39.4l2.2,1.3c-1.4-8.6-0.9-18.7-0.4-27.7
	C240.5,311.4,218.7,301.4,200.2,287.5z M376.7,303.5c-4,5.4-9.3,10.4-15.1,13.8c-18.7,6.5-20.5,27.3-38.8,34.2
	c-7.2,2.9-11.3-6.5-17.8-7.9c-9.7,1.6-19.8,4.3-29.7,2.7v30.2l1.3-0.9c46.4-2,88.2-20.3,120.8-50.9
	C390,317.7,382.1,310.5,376.7,303.5z M164.5,305.3l-20,20.7c34.1,30.6,74.9,47.1,120.8,50l-1.3-2.2c0.4-9-0.7-18.5,0.9-27.1
	l-0.4,0.5C226.3,346.1,191.4,331.9,164.5,305.3z M273.9,311.8l1.8,3.1l-0.4,22.8c6.6-2.5,15.8-2.3,21.9-3.4c-3.6-3.6-9-3.2-10.4-8.6
	c-2.5-3.6,1.1-7.4,0.9-10.4C283.4,313.2,277,315.7,273.9,311.8z M426.7,333.4c-20.7,13.5-38.5,36.5-57.3,51.2
	c-10.4,7.9-22.8,10.2-35,13.8c27,2,49.4,14.7,77.6,12.9c30.2-1.3,57.9-18.9,72.1-45.7c-20.8,24.8-54.3,23.4-85,26.2
	c-10.2,1.3-20.3,4.3-30.6,4.3c0.4-0.4,0.7-1.1,1.3-0.9C403.3,392.5,412.8,356,426.7,333.4z M114.8,335.5
	c13.8,16.2,14.4,37.6,33.6,50.9c7.4,6.5,17.3,7.7,25.5,11.1c-9.2,0.9-17.6-2.9-26.8-3.4c-30.9-3.8-66.3,0.2-89-25
	c10.2,18,28.4,33.6,47.4,39.7c35.9,13.7,68.5-6.5,102.8-9.5C168.6,397.5,147,354,114.8,335.5z M373.7,419.6
	c-30.7-14-66.3-29.7-102.3-16.4c-18.1-5.9-41.9-5.9-60,0c-31.6,14.4-74.8,36.1-108.2,12c6.3,7.5,13.1,11.1,20.3,16.4
	c21.6,14,52.7,12.6,74.9,1.3c20.5-8.6,36.1-34.3,62.2-26.2c-22.1,11.1-42.4,24.4-60.7,43.5l11.1,9.5c16.2-21.4,37.9-39.2,61.3-49.6
	c22.6,11,43.3,29.8,60.4,48.7l11.1-9.5c-18-17.4-38.8-31.5-60.4-42.6c5.6-1.4,12.4-1.1,18.1-0.5c23.4,10.2,41.3,30.7,67.8,33.8
	c28,4.5,53-6.8,70.3-27.3l-13.3,7C410.7,426.6,389.6,424.8,373.7,419.6z"/>
</svg>
